<svg xmlns="http://www.w3.org/2000/svg" width="147.67" height="133.391" viewBox="0 0 147.67 133.391"><path d="M389.578,559.131a1.7,1.7,0,1,1-1.055-2.17A1.7,1.7,0,0,1,389.578,559.131Zm-3.239,3.023a1.7,1.7,0,1,0,.419,2.377A1.7,1.7,0,0,0,386.339,562.154Zm-5.812,4.481a1.7,1.7,0,1,0,2.406,0A1.708,1.708,0,0,0,380.527,566.635Zm-4.072,3.483a1.7,1.7,0,1,0,2.377.377A1.707,1.707,0,0,0,376.455,570.119Zm-4.556,3.038a1.705,1.705,0,1,0,2.336.582A1.708,1.708,0,0,0,371.9,573.157Zm-4.823,2.591a1.705,1.705,0,1,0,2.276.784A1.706,1.706,0,0,0,367.076,575.748Zm-5.01,2.208a1.706,1.706,0,1,0,2.2.981A1.706,1.706,0,0,0,362.066,577.956Zm-5.2,1.886a1.707,1.707,0,1,0,2.144,1.1A1.706,1.706,0,0,0,356.864,579.842Zm-5.3,1.575a1.706,1.706,0,1,0,2.082,1.205A1.708,1.708,0,0,0,351.56,581.417Zm-5.383,1.289a1.707,1.707,0,1,0,2.018,1.313A1.708,1.708,0,0,0,346.178,582.706Zm-5.435,1.025a1.706,1.706,0,1,0,1.945,1.419A1.708,1.708,0,0,0,340.742,583.73Zm-5.508.784a1.707,1.707,0,1,0,1.9,1.487A1.7,1.7,0,0,0,335.234,584.515Zm-5.506.544a1.707,1.707,0,1,0,1.818,1.584A1.7,1.7,0,0,0,329.728,585.059Zm-5.552.32a1.708,1.708,0,1,0,1.76,1.646A1.7,1.7,0,0,0,324.176,585.378Zm-5.559.106a1.708,1.708,0,1,0,1.7,1.708A1.7,1.7,0,0,0,318.617,585.484Zm-5.561-.106a1.708,1.708,0,1,0,1.641,1.765A1.705,1.705,0,0,0,313.056,585.378Zm-5.552-.32a1.707,1.707,0,1,0,1.578,1.82A1.7,1.7,0,0,0,307.5,585.059ZM302,584.515a1.707,1.707,0,1,0,1.481,1.9A1.7,1.7,0,0,0,302,584.515Zm-5.506-.784a1.706,1.706,0,1,0,1.414,1.954A1.705,1.705,0,0,0,296.492,583.73Zm-5.438-1.025a1.707,1.707,0,1,0,1.311,2.023A1.7,1.7,0,0,0,291.054,582.706Zm-5.38-1.289a1.706,1.706,0,1,0,1.2,2.089A1.7,1.7,0,0,0,285.674,581.417Zm-5.305-1.575a1.707,1.707,0,1,0,1.093,2.15A1.7,1.7,0,0,0,280.368,579.842Zm-5.2-1.886a1.705,1.705,0,1,0,.981,2.2A1.7,1.7,0,0,0,275.166,577.956Zm-5.01-2.208a1.705,1.705,0,1,0,.784,2.28A1.7,1.7,0,0,0,270.156,575.748Zm-4.823-2.591a1.706,1.706,0,1,0,.584,2.342A1.7,1.7,0,0,0,265.333,573.157Zm-4.556-3.038a1.7,1.7,0,1,0,.379,2.382A1.7,1.7,0,0,0,260.777,570.119Zm-6.478-3.483a1.7,1.7,0,1,0,2.408,0A1.712,1.712,0,0,0,254.3,566.635Zm-1.036-4.063a1.7,1.7,0,1,0-.419,2.377A1.7,1.7,0,0,0,253.264,562.572Zm-2.391-4.554a1.7,1.7,0,1,0-1.055,2.17A1.7,1.7,0,0,0,250.873,558.018Zm-.9-5.026a1.7,1.7,0,1,0-1.639,1.765A1.7,1.7,0,0,0,249.97,552.992Zm-1.258-3.847a1.706,1.706,0,1,0-1.055-2.17A1.7,1.7,0,0,0,248.712,549.146Zm2.183-5.2a1.705,1.705,0,1,0-.419-2.377A1.7,1.7,0,0,0,250.9,543.95Zm5.812-4.482a1.7,1.7,0,1,0-2.406,0A1.71,1.71,0,0,0,256.707,539.469Zm4.072-3.483a1.7,1.7,0,1,0-2.377-.377A1.709,1.709,0,0,0,260.779,535.985Zm4.554-3.036a1.705,1.705,0,1,0-2.333-.586A1.713,1.713,0,0,0,265.333,532.949Zm4.823-2.593a1.705,1.705,0,1,0-2.276-.787A1.708,1.708,0,0,0,270.156,530.356Zm5.01-2.205a1.707,1.707,0,1,0-2.2-.983A1.714,1.714,0,0,0,275.166,528.151Zm5.2-1.888a1.707,1.707,0,1,0-2.144-1.1A1.707,1.707,0,0,0,280.368,526.262Zm5.305-1.575a1.706,1.706,0,1,0-2.086-1.207A1.708,1.708,0,0,0,285.674,524.687Zm5.378-1.289a1.707,1.707,0,1,0-2.018-1.315A1.705,1.705,0,0,0,291.052,523.4Zm5.438-1.025a1.708,1.708,0,1,0-1.948-1.419A1.707,1.707,0,0,0,296.49,522.374Zm5.506-.784a1.707,1.707,0,1,0-1.9-1.485A1.707,1.707,0,0,0,302,521.589Zm5.506-.544a1.707,1.707,0,1,0-1.818-1.582A1.706,1.706,0,0,0,307.5,521.045Zm5.552-.319a1.707,1.707,0,1,0-1.76-1.648A1.706,1.706,0,0,0,313.054,520.726Zm5.561-.106h0a1.708,1.708,0,0,0,0-3.415h0a1.708,1.708,0,0,0,0,3.415Zm5.563.106a1.707,1.707,0,1,0-1.641-1.765A1.705,1.705,0,0,0,324.178,520.726Zm5.552.319a1.707,1.707,0,1,0-1.578-1.822A1.7,1.7,0,0,0,329.73,521.045Zm5.506.544a1.707,1.707,0,1,0-1.483-1.9A1.7,1.7,0,0,0,335.236,521.589Zm5.506.784a1.708,1.708,0,1,0-1.415-1.954A1.705,1.705,0,0,0,340.742,522.374Zm5.438,1.025a1.707,1.707,0,1,0-1.311-2.025A1.7,1.7,0,0,0,346.18,523.4Zm5.38,1.289a1.706,1.706,0,1,0-1.2-2.089A1.7,1.7,0,0,0,351.56,524.687Zm5.3,1.575a1.707,1.707,0,1,0-1.093-2.151A1.7,1.7,0,0,0,356.864,526.262Zm5.2,1.888a1.707,1.707,0,1,0-.978-2.208A1.7,1.7,0,0,0,362.066,528.151Zm5.01,2.205a1.705,1.705,0,1,0-.784-2.283A1.7,1.7,0,0,0,367.076,530.356Zm4.823,2.593a1.705,1.705,0,1,0-.582-2.344A1.7,1.7,0,0,0,371.9,532.949Zm4.554,3.036a1.7,1.7,0,1,0-.377-2.384A1.7,1.7,0,0,0,376.453,535.985Zm6.478,3.483a1.705,1.705,0,1,0-2.408,0A1.71,1.71,0,0,0,382.931,539.469Zm3.409,4.482a1.706,1.706,0,1,0-2.373-.419A1.712,1.712,0,0,0,386.339,543.95Zm.02,4.135a1.7,1.7,0,1,0,1.055-2.168A1.7,1.7,0,0,0,386.359,548.086Zm.9,4.907a1.7,1.7,0,1,0,1.76-1.646A1.707,1.707,0,0,0,387.26,552.992Zm-142.479.06c0-20.874,33.058-37.8,73.836-37.8s73.834,16.921,73.834,37.8-33.058,37.793-73.834,37.793S244.781,573.926,244.781,553.052Zm.458,0c0,20.607,32.851,37.312,73.378,37.312s73.376-16.705,73.376-37.312-32.851-37.312-73.376-37.312S245.239,532.445,245.239,553.052Zm6.315-.009c0-17.141,30.028-31.037,67.072-31.037s67.068,13.9,67.068,31.037-30.026,31.038-67.068,31.038S251.554,570.185,251.554,553.043Zm.441.024c0,16.881,29.817,30.566,66.6,30.566s66.6-13.684,66.6-30.566-29.815-30.564-66.6-30.564S251.995,536.188,251.995,553.068Zm57.691-13.489V536.3h2.188v1.093h5.257v-3.477h-2.089v.859h-2.186v-4.305h2.186v.861h2.089v-3.082h-5.257v1.1h-2.188v-3.281h13.854a3.927,3.927,0,0,1,2.955,6.513,4.126,4.126,0,0,1-2.955,7Zm10.327-8.249h3.527a1.541,1.541,0,1,0,0-3.082h-3.527Zm0,6.061h3.527a1.738,1.738,0,1,0,0-3.477h-3.527Zm-49.992,14.716h-1.67v-5.156h1.67a2.294,2.294,0,0,1,2.225,2.578C272.245,551.129,271.43,552.107,270.019,552.107Zm.4-.606a1.841,1.841,0,0,0,1.322-2.034,3.411,3.411,0,0,0-.037-.493c-.037,0-.077-.009-.112-.009h-1.172Zm.154,10.347h-2.225v-6.3h2.225c1.152,0,2.225,1.434,2.225,3.153C272.8,560.294,271.987,561.848,270.575,561.848Zm1.725-3.215a3.55,3.55,0,0,0-.165-1.075h-1.714v3.728h.15C271.694,561.286,272.3,559.92,272.3,558.633Zm-8.9,7.088h-.007V542.952h7.734a5.71,5.71,0,0,1,4.265,1.767l1.421,1.421a6.686,6.686,0,0,1,1.954,4.618,6.889,6.889,0,0,1-1.862,4.539,6.065,6.065,0,0,1,2.419,5.2c0,3.21-2.593,6.8-6.066,6.8h-8.289v-.007Zm.5-.436h7.791c3.327,0,5.565-3.5,5.565-6.3a5.522,5.522,0,0,0-2.783-5.158,5.914,5.914,0,0,0,2.228-4.583,5.632,5.632,0,0,0-5.565-5.729H263.9Zm19.228-1.148a7.1,7.1,0,0,1-2.146-5.035v-16.15h5.449v.007L288,544.53H288v16.148c0,.029.007.055.009.084.046,0,.092.013.141.013a1.664,1.664,0,0,0,1.727-1.672v-16.15h5.451v.007l1.571,1.571h0v16.148a7.145,7.145,0,0,1-12.255,4.988h0Zm-1.644-4.973a6.678,6.678,0,0,0,13.356,0v-15.65h-4.453v15.65a2.226,2.226,0,0,1-4.451,0l0-15.65h-4.451Zm19.768,5.013a7.089,7.089,0,0,1-2.2-5.074v-9.529a7.528,7.528,0,0,1,12.385-5.363l.011-.011,1.694,1.694-.007.007a7.216,7.216,0,0,1,1.846,5.248v.95h-4.891l-.007,0-1.571-1.571.009-.009h-.009v-.95a2.428,2.428,0,0,0-.044-.465,2.261,2.261,0,0,0-.577-.031,2.007,2.007,0,0,0-1.815,2.071v9.531a1.578,1.578,0,0,0,.033.32,2.064,2.064,0,0,0,.207.04,2.039,2.039,0,0,0,1.668-.516,1.9,1.9,0,0,0,.513-1.249h-.657v-.011L306.27,557.7h-.009v-4.433l7.134,0,0,0,0,0h0v0l1.575,1.575h0v5.834c0,4.539-2.6,7.141-7.134,7.141a7.233,7.233,0,0,1-5.012-2.06l0,0-1.584-1.58Zm5.023,1.63c4.532,0,6.636-2.684,6.636-6.643v-5.339h-6.145v3.437h2.247v1.9a2.344,2.344,0,0,1-2.739,2.435A2.493,2.493,0,0,1,304,559.166v-9.531a2.513,2.513,0,0,1,2.269-2.569,2.437,2.437,0,0,1,2.739,2.569v.452h3.9v-.452c0-3.959-2.1-6.641-6.636-6.641a6.761,6.761,0,0,0-6.72,6.641v9.529A6.763,6.763,0,0,0,306.272,565.807Zm15.088-22.855h6.905l0,0,0,0,1.582,1.582-.007.007L335.08,567.3h-5.616l0,0-1.571-1.571h0l-.493-2.435H323.68l-.906,4.01h-5.658l0,0-1.575-1.573h0l0,0h0l0,0Zm-3.84,22.769H317.5l.015.013Zm4.23-22.207-5.566,21.771H320.8l.906-4.01h5.777l.813,4.01h4.583l-5.008-21.771Zm4.96,13.94h-4.136l2.179-9.644Zm-1.582-.56h.967l-.458-2.261Zm8.172-8.934h-.007v-5.008h14.352v.007l1.571,1.571h0v5.008H344.77v17.8h-5.449v0l-1.575-1.575h0l0,0,0,0V549.538h-2.873v-.009Zm.493-.436h4.453v17.8H342.7v-17.8h4.451v-4.01H333.793Zm15.8.436h-.007v-5.008h14.354v.009l1.571,1.569h.007v5.008h-4.453v17.8h-5.449v0l-1.573-1.575h0v0l0,0h0V549.538h-2.878v-.009Zm.5-.436h4.453v17.8h4.453v-17.8h4.451v-4.01H350.086Zm16.287,18.2h0V542.952h5.451v.007l1.571,1.571h0V567.3h-5.449v0Zm.5-.436h4.453V543.514h-4.453Zm-82.715,80.889c0,1.183-1.108,2.357-3.232,2.357-.394,0-1.655-.064-1.974-.064-.469,0-.972.033-1.547.033-.15,0-.225-.033-.225-.108s.053-.106.214-.106a1.884,1.884,0,0,0,.319-.044c.192-.031.311-.192.342-.586.044-.586.064-1.205.064-2.552v-1.578c0-1.569-.011-1.868-.02-2.21-.011-.436-.161-.608-.472-.639-.128-.011-.278-.022-.394-.033-.159-.011-.192-.053-.192-.106,0-.086.086-.108.214-.108.65,0,1.183.033,1.708.033.7,0,1.333-.033,1.749-.033,2.252,0,2.679,1.047,2.679,1.644a2.045,2.045,0,0,1-1.3,1.782A2.466,2.466,0,0,1,284.156,646.173Zm-4.193-2.529c0,.086.042.1.1.106a4.779,4.779,0,0,0,.672.044,1.009,1.009,0,0,0,.639-.172,1.3,1.3,0,0,0,.353-1.013c0-.864-.427-1.589-1.269-1.589a1.1,1.1,0,0,0-.383.053c-.066.02-.108.042-.108.192Zm2.219,2.807a2.189,2.189,0,0,0-.628-1.644,1.566,1.566,0,0,0-.994-.405,4.236,4.236,0,0,0-.533,0c-.042,0-.064.022-.064.075v.864c0,.511-.011,1.26.022,1.8.02.341.064.478.278.586a1.358,1.358,0,0,0,.7.17C281.521,647.9,282.182,647.517,282.182,646.451Zm8.472,1.835a3.8,3.8,0,0,1-.469-.053c-.322-.075-.386-.269-.405-.544-.044-.45-.055-1.441-.055-2.285v-1.877c0-1.655,0-1.932.033-2.274.022-.383.128-.522.405-.575.139-.022.2-.022.311-.033s.2-.022.2-.106c0-.064-.055-.108-.236-.108-.383,0-1.644.033-1.738.033s-1.132-.033-1.56-.033c-.181,0-.234.033-.234.1s.075.117.2.117a2.009,2.009,0,0,1,.319.042c.236.044.353.236.375.536.031.341.031.65.031,2.3V645.4c0,1.046-.02,1.813-.064,2.263-.031.308-.106.544-.33.575-.117.022-.225.033-.33.044-.128,0-.214.031-.214.106s.086.108.256.108c.364,0,1.485-.033,1.538-.033.095,0,1.238.033,1.963.033.17,0,.225-.055.225-.108S290.834,648.286,290.653,648.286Zm11.759-7.855c-.447,0-.98.033-1.216.033-.427,0-1.121-.033-1.547-.033-.119,0-.214.033-.214.108,0,.053.053.106.192.106a3.787,3.787,0,0,1,.469.053c.427.075.48.353.5.95l.064,4c-.289-.255-1.025-.969-2.113-1.972-2.443-2.243-3-2.776-3.446-3.149-.278-.225-.333-.256-.416-.256-.128,0-.172.192-.183.511-.064,1.377-.042,3.948-.095,6.147-.033.991-.086,1.258-.5,1.322-.117.022-.256.022-.353.033-.15,0-.2.042-.2.106,0,.086.086.108.236.108.416,0,1.205-.033,1.452-.033.661.011,1,.033,1.375.033.172,0,.256-.022.256-.108,0-.064-.053-.095-.212-.106a2.91,2.91,0,0,1-.566-.075c-.3-.108-.342-.395-.364-1.163l-.106-3.64c.778.758,1.846,1.763,2.443,2.307.641.586,1.58,1.43,2.3,2.069.694.608,1.025.864,1.194.864.139,0,.214-.117.214-.661.044-2.144.044-4.279.128-6.423.033-.663.139-.844.491-.886a1.241,1.241,0,0,1,.267-.033c.128,0,.183-.064.183-.117S302.573,640.432,302.412,640.432Zm11.426,4.065c-.577,0-1.271.033-1.655.033-.289,0-1.11-.033-1.8-.033-.17,0-.223.044-.223.108s.084.106.17.106c.183.022.319.033.458.055.364.053.5.275.5.884.011.4.011.813.011,1.249v.652a.333.333,0,0,1-.128.286,1.115,1.115,0,0,1-.6.128c-2.241,0-3.159-2.038-3.159-3.946a3.474,3.474,0,0,1,.672-2.307,2.392,2.392,0,0,1,1.91-.767c1.483,0,2.432.511,2.635,1.236a1.572,1.572,0,0,1,.128.535c.011.084.055.17.13.17s.117-.053.117-.225a9.73,9.73,0,0,1,.117-1.963c.011-.095-.011-.139-.106-.139-.311-.011-.663-.084-1.025-.128a10.952,10.952,0,0,0-1.73-.15,5.837,5.837,0,0,0-3.063.705,3.851,3.851,0,0,0-1.921,3.479c0,2.838,2.082,4.182,5.081,4.182a8.207,8.207,0,0,0,2.613-.405c.192-.075.214-.139.214-.767v-.769c0-.522.011-1.077.033-1.419.031-.375.148-.491.405-.544.106-.011.245-.033.286-.033.108-.011.172-.031.172-.106S314,644.5,313.838,644.5Zm11.633,3.79c-.108-.011-.322-.022-.469-.044-.322-.053-.408-.234-.438-.586-.053-.447-.053-1.238-.053-2.252v-1.877c0-1.655,0-1.932.02-2.274s.119-.522.4-.566c.128-.02.192-.02.372-.042.108,0,.161-.053.161-.106s-.053-.108-.214-.108c-.458,0-1.686.033-1.782.033s-1.066-.033-1.686-.033c-.161,0-.214.044-.214.108,0,.042.053.106.2.106.128.011.289.022.375.033.35.073.436.255.458.564.02.342.02.524.02,2.177v.225c0,.053-.031.075-.064.075h-3.329a.066.066,0,0,1-.064-.075v-.225c0-1.333,0-1.771.033-2.113.022-.308.075-.555.361-.619.108-.02.247-.031.375-.042s.192-.053.192-.106-.031-.108-.222-.108c-.461,0-1.357.033-1.763.033-.245,0-1.066-.033-1.685-.033-.117,0-.234.022-.234.1,0,.053.02.106.214.117.117.011.17.011.3.033.375.053.491.255.513.628.02.342.031.588.031,2.241V645.4c0,1.013-.022,1.76-.053,2.21-.022.319-.117.6-.375.628-.139.022-.2.033-.33.044s-.181.042-.181.117.117.1.234.1c.341,0,1.463-.033,1.56-.033s1.366.033,1.974.033c.159,0,.212-.055.212-.108,0-.075-.084-.106-.2-.106s-.222-.022-.447-.053c-.32-.055-.417-.258-.447-.566-.044-.458-.055-.9-.055-1.91v-1.111a.057.057,0,0,1,.064-.064h3.329a.061.061,0,0,1,.064.064v.866c0,1.014-.02,1.685-.064,2.133-.031.341-.095.544-.35.6a3.057,3.057,0,0,1-.33.044c-.139,0-.2.042-.2.095s.044.119.236.119c.522,0,1.355-.033,1.527-.033.192,0,1.269.033,2.005.033.128,0,.214-.033.214-.108C325.652,648.339,325.6,648.286,325.472,648.286Zm10.875.106c0,.075-.075.108-.278.108-1.047,0-2.263-.022-2.946-.033-.17,0-.234-.031-.234-.1s.053-.106.15-.128c.117-.02.159-.095.128-.192l-.716-1.7a.09.09,0,0,0-.084-.064h-2.446c-.053,0-.073.022-.095.075l-.331.875a2.358,2.358,0,0,0-.172.683c0,.2.1.3.319.319.119.022.289.033.375.044.161,0,.192.053.192.106,0,.086-.086.108-.225.108-.48,0-.842-.033-1.408-.033-.117,0-.822.033-1.355.033-.15,0-.214-.044-.214-.108,0-.086.075-.106.2-.106a2.865,2.865,0,0,0,.342-.044c.375-.075.588-.405.811-.917l2.849-6.445c.2-.46.322-.619.438-.619s.2.15.383.533c.278.6,2.071,4.684,2.8,6.306.363.833.6,1.089.972,1.141a2.034,2.034,0,0,0,.342.044C336.283,648.286,336.347,648.328,336.347,648.392Zm-4.237-3.01-.939-2.283c-.033-.075-.053-.053-.075,0l-.908,2.283a.041.041,0,0,0,.044.055h1.824C332.121,645.437,332.121,645.4,332.11,645.382Zm12.111-5.026a2.925,2.925,0,0,0-.33.064,4.3,4.3,0,0,1-.672.044h-4.642a8.342,8.342,0,0,1-1.183-.075,3.37,3.37,0,0,0-.364-.086c-.064,0-.1.108-.117.266-.075.405-.194.983-.236,1.419-.011.128-.011.214.086.214.075,0,.106-.086.128-.17a2.473,2.473,0,0,1,.095-.247c.139-.372.374-.511.972-.544.533-.031,1.2-.02,1.611-.02V645.4c0,1.035-.02,1.8-.064,2.252-.031.308-.106.544-.341.586-.117.022-.234.033-.342.044-.128,0-.211.031-.211.106s.073.108.245.108c.353,0,1.388-.033,1.569-.033s1.205.033,1.932.033c.192,0,.245-.033.245-.1s-.044-.106-.214-.117c-.192-.022-.319-.033-.458-.053-.322-.055-.394-.278-.416-.555-.053-.449-.053-1.441-.053-2.274v-4.182c.811,0,1.366.02,1.716.053.63.042.791.3.833.63.011.053.011.095.022.211s.031.194.117.194c.064,0,.1-.064.108-.214.009-.267.075-1.26.075-1.41C344.329,640.421,344.318,640.357,344.221,640.357Zm9.3,0a3.02,3.02,0,0,0-.33.064,4.3,4.3,0,0,1-.672.044h-4.642a8.344,8.344,0,0,1-1.183-.075,3.367,3.367,0,0,0-.364-.086c-.064,0-.1.108-.117.266-.075.405-.192.983-.236,1.419-.011.128-.011.214.086.214.075,0,.106-.086.128-.17a2.158,2.158,0,0,1,.1-.247c.139-.372.372-.511.969-.544.535-.031,1.2-.02,1.613-.02V645.4c0,1.035-.022,1.8-.064,2.252-.033.308-.108.544-.342.586-.119.022-.236.033-.341.044-.128,0-.214.031-.214.106s.075.108.245.108c.353,0,1.388-.033,1.569-.033s1.205.033,1.932.033c.192,0,.245-.033.245-.1s-.042-.106-.214-.117c-.192-.022-.319-.033-.458-.053-.32-.055-.394-.278-.416-.555-.053-.449-.053-1.441-.053-2.274v-4.182c.811,0,1.366.02,1.719.053.628.042.789.3.831.63.011.053.011.095.022.211s.033.194.117.194c.066,0,.1-.064.108-.214.011-.267.075-1.26.075-1.41C353.625,640.421,353.614,640.357,353.517,640.357Zm6.451,7.93a3.8,3.8,0,0,1-.469-.053c-.319-.075-.383-.269-.405-.544-.042-.45-.053-1.441-.053-2.285v-1.877c0-1.655,0-1.932.033-2.274.02-.383.128-.522.405-.575.139-.022.2-.022.308-.033s.2-.022.2-.106c0-.064-.053-.108-.236-.108-.383,0-1.641.033-1.738.033s-1.13-.033-1.558-.033c-.181,0-.236.033-.236.1s.075.117.2.117a2.046,2.046,0,0,1,.322.042c.233.044.353.236.372.536.033.341.033.65.033,2.3V645.4c0,1.046-.022,1.813-.064,2.263-.033.308-.108.544-.33.575-.119.022-.225.033-.333.044-.128,0-.214.031-.214.106s.086.108.258.108c.361,0,1.483-.033,1.536-.033.1,0,1.238.033,1.963.033.172,0,.225-.055.225-.108S360.151,648.286,359.968,648.286Zm-43.739-19.345H314.79V624.6h1.359a1.166,1.166,0,0,1,.6.159,1.186,1.186,0,0,1,.427.427,1.172,1.172,0,0,1,.159.606,1.2,1.2,0,0,1-.145.595,1.174,1.174,0,0,1-.293.337,1.221,1.221,0,0,1,.394,1.635,1.13,1.13,0,0,1-.436.427A1.267,1.267,0,0,1,316.229,628.942Zm-.978-2.419h.9a.75.75,0,0,0,.549-.187.739.739,0,0,0-.549-1.276h-.9Zm0,1.959h.985a.77.77,0,0,0,.568-.194.75.75,0,0,0,.194-.555.741.741,0,0,0-.2-.549.76.76,0,0,0-.562-.2h-.985Zm4.867.46v-1.529l1.247-2.814h-.5l-.994,2.225-.991-2.225h-.5l1.247,2.768v1.575Zm3.556-2.5v.465h68.777v-.465Zm-11.827,0H244.783v.465h67.063Zm-44.3-17.247,1.227,3.525h-1.291l-1.071-3.133c-.174.018-.3.026-.379.026h-1.5v3.107h-1.24V603.58h2.741a2.78,2.78,0,0,1,1.41.359,2.551,2.551,0,0,1,.978,1,2.92,2.92,0,0,1,.353,1.437v.443a2.935,2.935,0,0,1-.326,1.39A2.54,2.54,0,0,1,267.545,609.191Zm-.013-2.924a1.451,1.451,0,0,0-1.5-1.5h-1.5v3.655h1.5a1.451,1.451,0,0,0,1.5-1.5Zm13.246-1.5V603.58H275.3v9.137h5.48v-1.187h-4.241v-2.794h4.111v-1.187h-4.111v-2.781Zm6.4,5.209v.234a2.738,2.738,0,0,0,.353,1.384,2.515,2.515,0,0,0,.978.961,3.047,3.047,0,0,0,2.82,0,2.5,2.5,0,0,0,.978-.961,2.716,2.716,0,0,0,.353-1.384,2.276,2.276,0,0,0-.333-1.285,2.407,2.407,0,0,0-.8-.771,9.3,9.3,0,0,0-1.234-.566q-.6-.238-.954-.412a1.663,1.663,0,0,1-.579-.469,1.171,1.171,0,0,1-.229-.738,1.384,1.384,0,1,1,2.767,0v.353h1.24v-.353a2.6,2.6,0,0,0-.339-1.318,2.423,2.423,0,0,0-.941-.921,2.881,2.881,0,0,0-2.688,0,2.422,2.422,0,0,0-.941.921,2.6,2.6,0,0,0-.337,1.318,2.4,2.4,0,0,0,.344,1.344,2.465,2.465,0,0,0,.831.8,8.618,8.618,0,0,0,1.251.56c.392.156.7.293.921.405a1.632,1.632,0,0,1,.555.449,1.073,1.073,0,0,1,.22.685,1.5,1.5,0,1,1-3,0v-.234Zm13.365,2.741V603.58H299.3v9.137Zm11.9-7.78a2.921,2.921,0,0,1,.353,1.437v3.549a2.921,2.921,0,0,1-.353,1.436,2.536,2.536,0,0,1-.978,1,2.8,2.8,0,0,1-1.41.359h-2.741V603.58h2.741a2.775,2.775,0,0,1,1.41.359A2.537,2.537,0,0,1,312.441,604.937Zm-.888,1.331a1.451,1.451,0,0,0-1.5-1.5h-1.5v6.762h1.5a1.451,1.451,0,0,0,1.5-1.5Zm13.118-1.5V603.58H319.19v9.137h5.482v-1.187H320.43v-2.794h4.109v-1.187H320.43v-2.781Zm8.051-1.187H331.2v9.137h1.24v-7.128l3.642,7.128h1.514V603.58h-1.24v7.062Zm16.745,2.741v-.13a2.922,2.922,0,0,0-.353-1.436,2.537,2.537,0,0,0-.978-1,2.943,2.943,0,0,0-2.818,0,2.537,2.537,0,0,0-.978,1,2.922,2.922,0,0,0-.352,1.436v3.915a2.922,2.922,0,0,0,.352,1.436,2.537,2.537,0,0,0,.978,1,2.944,2.944,0,0,0,2.818,0,2.537,2.537,0,0,0,.978-1,2.922,2.922,0,0,0,.353-1.436v-.13h-1.238v.234a1.5,1.5,0,1,1-3,0v-4.125a1.5,1.5,0,1,1,3,0v.236Zm11.878-1.553V603.58h-5.482v9.137h5.482v-1.187H357.1v-2.794h4.109v-1.187H357.1v-2.781Zm6.394,5.209v.234a2.738,2.738,0,0,0,.352,1.384,2.515,2.515,0,0,0,.978.961,3.047,3.047,0,0,0,2.82,0,2.5,2.5,0,0,0,.978-.961,2.715,2.715,0,0,0,.353-1.384,2.276,2.276,0,0,0-.333-1.285,2.406,2.406,0,0,0-.8-.771,9.289,9.289,0,0,0-1.234-.566q-.6-.238-.952-.412a1.651,1.651,0,0,1-.582-.469,1.17,1.17,0,0,1-.229-.738,1.384,1.384,0,1,1,2.767,0v.353h1.24v-.353a2.58,2.58,0,0,0-.339-1.318,2.424,2.424,0,0,0-.941-.921,2.881,2.881,0,0,0-2.688,0,2.4,2.4,0,0,0-.939.921,2.579,2.579,0,0,0-.339,1.318,2.382,2.382,0,0,0,.346,1.344,2.44,2.44,0,0,0,.828.8,8.625,8.625,0,0,0,1.252.56c.392.156.7.293.921.405a1.632,1.632,0,0,1,.555.449,1.075,1.075,0,0,1,.223.685,1.5,1.5,0,1,1-3,0v-.234Z" transform="translate(-244.781 -515.257)" fill="#fff"/></svg>